<svg width="1440" height="990" viewBox="0 0 1440 990" fill="none" xmlns="http://www.w3.org/2000/svg">
<g clip-path="url(#clip0_2320_1026)">
<rect width="1440" height="990" fill="#F5FCFF"/>
<path opacity="0.7" fill-rule="evenodd" clip-rule="evenodd" d="M1190.11 557.391C1158.95 526.228 1108.42 526.228 1077.26 557.391C1046.1 588.554 1046.1 639.079 1077.26 670.243C1108.42 701.406 1158.95 701.406 1190.11 670.243C1221.28 639.079 1221.28 588.554 1190.11 557.391ZM1173.29 574.212C1151.42 552.338 1115.96 552.338 1094.08 574.212C1072.21 596.085 1072.21 631.549 1094.08 653.422C1115.96 675.295 1151.42 675.295 1173.29 653.422C1195.17 631.549 1195.17 596.085 1173.29 574.212Z" fill="#E3FAF8"/>
<path fill-rule="evenodd" clip-rule="evenodd" d="M703.812 919.532C665.256 880.976 602.744 880.976 564.188 919.532C525.632 958.089 525.632 1020.6 564.188 1059.16C602.744 1097.71 665.256 1097.71 703.812 1059.16C742.368 1020.6 742.368 958.089 703.812 919.532ZM686.204 937.141C657.372 908.309 610.628 908.309 581.796 937.141C552.965 965.972 552.965 1012.72 581.796 1041.55C610.628 1070.38 657.372 1070.38 686.204 1041.55C715.035 1012.72 715.035 965.972 686.204 937.141Z" fill="#E7F9FF"/>
<path fill-rule="evenodd" clip-rule="evenodd" d="M444.647 94.5413C428.078 94.5413 414.647 107.973 414.647 124.541L414.647 244.719C414.647 261.288 428.078 274.719 444.647 274.719L564.825 274.719C581.393 274.719 594.825 261.288 594.825 244.719L594.825 124.541C594.825 107.973 581.393 94.5413 564.825 94.5413L444.647 94.5413ZM460.507 120.402C449.462 120.402 440.507 129.357 440.507 140.402V228.859C440.507 239.905 449.462 248.859 460.507 248.859L548.964 248.859C560.01 248.859 568.964 239.905 568.964 228.859V140.402C568.964 129.357 560.01 120.402 548.964 120.402L460.507 120.402Z" fill="#E7F9FF"/>
<path fill-rule="evenodd" clip-rule="evenodd" d="M1297.91 42.787C1286.2 54.5027 1286.2 73.4977 1297.91 85.2134L1375.01 162.316C1386.73 174.031 1405.73 174.031 1417.44 162.316L1494.54 85.2134C1506.26 73.4977 1506.26 54.5027 1494.54 42.787L1417.44 -34.3153C1405.73 -46.031 1386.73 -46.031 1375.01 -34.3153L1297.91 42.787ZM1325.15 49.8581C1317.34 57.6686 1317.34 70.3319 1325.15 78.1423L1382.09 135.075C1389.9 142.886 1402.56 142.886 1410.37 135.075L1467.3 78.1423C1475.11 70.3319 1475.11 57.6686 1467.3 49.8581L1410.37 -7.0747C1402.56 -14.8852 1389.9 -14.8852 1382.09 -7.0747L1325.15 49.8581Z" fill="white"/>
<path fill-rule="evenodd" clip-rule="evenodd" d="M27.7602 495.622C16.0444 507.338 16.0445 526.332 27.7602 538.048L67.8495 578.138C79.5652 589.853 98.5602 589.853 110.276 578.138L150.365 538.048C162.081 526.332 162.081 507.338 150.365 495.622L110.276 455.532C98.5602 443.817 79.5652 443.817 67.8495 455.532L27.7602 495.622ZM44.3759 502.693C36.5654 510.503 36.5654 523.167 44.3759 530.977L74.9205 561.522C82.731 569.332 95.3943 569.332 103.205 561.522L133.749 530.977C141.56 523.167 141.56 510.503 133.749 502.693L103.205 472.148C95.3943 464.338 82.731 464.338 74.9206 472.148L44.3759 502.693Z" fill="white"/>
</g>
<defs>
<clipPath id="clip0_2320_1026">
<rect width="1440" height="990" fill="white"/>
</clipPath>
</defs>
</svg>
