<svg width="180" height="138" viewBox="0 0 180 138" fill="none" xmlns="http://www.w3.org/2000/svg">
<path d="M159.448 46.8798C151.11 52.5026 141.416 55.7988 133.273 61.6155C125.129 67.6261 118.731 77.7084 121.833 87.4029C123.772 93.9951 129.589 98.4546 132.497 104.659C136.181 112.802 134.048 123.079 127.844 129.671C121.639 136.069 111.945 138.784 103.22 137.233C94.3006 135.682 86.545 130.059 81.31 122.885C77.8199 118.038 75.4933 112.415 72.0032 107.567C68.7071 102.72 63.8598 98.2607 57.8492 97.2913C46.4097 95.7402 36.5213 107.955 24.8879 107.18C17.5201 106.598 11.3156 100.2 9.76448 93.0257C8.21336 85.8518 10.7339 78.0962 15.5812 72.4733C20.4284 66.8505 27.2146 63.1666 34.3885 61.2277C39.2358 59.8705 44.2769 59.0949 49.1242 57.3499C53.9714 55.6049 58.4309 52.6965 60.9515 48.2371C66.7682 36.9914 56.492 22.8374 60.9515 11.204C63.4721 4.41788 71.0338 0.152296 78.2077 0.346186C85.3817 0.540076 92.3617 4.41788 96.8212 10.0407C99.5356 13.3368 103.026 26.9091 106.322 28.0725C110.2 29.2358 122.802 16.633 126.292 14.3063C134.242 9.26513 143.355 5.38733 152.662 5.969C161.968 6.74456 171.275 13.1429 173.02 22.2558C174.959 31.7564 167.785 41.257 159.448 46.8798Z" fill="#F4F5F7"/>
<path d="M17.3262 15.8572C17.3262 16.6328 16.5506 17.2144 15.7751 17.2144H13.6423V19.3472C13.6423 20.1228 12.8667 20.7045 12.0912 20.7045C11.3156 20.7045 10.7339 20.1228 10.7339 19.1533V17.0205H8.60113C7.82557 17.0205 7.2439 16.245 7.2439 15.4694C7.2439 14.6939 7.82557 14.1122 8.79502 14.1122H10.9278V11.9794C10.9278 11.2038 11.7034 10.6222 12.4789 10.6222C13.2545 10.6222 13.8362 11.3977 13.8362 12.1733V14.3061H15.969C16.7445 14.3061 17.3262 15.0816 17.3262 15.8572Z" fill="#EBECF0"/>
<path d="M70.8399 131.609C70.8399 131.028 71.4216 130.446 72.0033 130.446H73.7483V128.701C73.7483 128.119 74.3299 127.538 74.9116 127.538C75.4933 127.538 76.0749 128.119 76.0749 128.701V130.446H77.82C78.4016 130.446 78.9833 131.028 78.9833 131.609C78.9833 132.191 78.4016 132.773 77.82 132.773H76.0749V134.518C76.0749 135.099 75.4933 135.681 74.9116 135.681C74.3299 135.681 73.7483 135.099 73.7483 134.518V132.773H72.0033C71.4216 132.773 70.8399 132.385 70.8399 131.609Z" fill="#EBECF0"/>
<path d="M163.345 56.7353H165.478V58.8681C165.478 59.6436 166.06 60.2253 166.835 60.4192C167.611 60.4192 168.193 59.8375 168.386 59.062V56.9292H170.519C171.295 56.9292 171.877 56.3475 172.07 55.5719C172.07 54.7964 171.489 54.2147 170.713 54.0208H168.58V51.888C168.58 51.1125 167.999 50.5308 167.223 50.3369C166.448 50.3369 165.866 50.9186 165.672 51.6941V53.8269H163.539C162.764 53.8269 162.182 54.4086 161.988 55.1842C161.988 55.9597 162.57 56.7353 163.345 56.7353Z" fill="#A5ADBA"/>
<path d="M3.9478 109.7L4.72336 111.639C5.11114 112.415 5.8867 112.608 6.66226 112.415C7.43782 112.027 7.8256 111.251 7.43782 110.476L6.66226 108.537L8.60116 107.761C9.37672 107.373 9.57061 106.598 9.37672 105.822C8.98894 105.047 8.21338 104.853 7.43782 105.047L5.49892 105.822L4.72336 103.883C4.33558 103.108 3.56002 102.914 2.78446 103.108C2.00889 103.496 1.815 104.271 2.00889 105.047L2.78446 106.986L0.845554 107.761C0.0699933 108.149 -0.123897 108.924 0.0699933 109.7C0.457774 110.476 1.23333 110.863 2.00889 110.476L3.9478 109.7Z" fill="#A5ADBA"/>
<rect x="43" y="19.033" width="94" height="102.717" rx="5" fill="white" stroke="#97A0AF" stroke-width="4"/>
<path fill-rule="evenodd" clip-rule="evenodd" d="M120.099 52.3217H59.8689C58.8446 52.3217 58.0251 51.5022 58.0251 50.4779C58.0251 49.4536 58.8446 48.6341 59.8689 48.6341H120.099C121.124 48.6341 121.943 49.4536 121.943 50.4779C122.148 51.5022 121.328 52.3217 120.099 52.3217ZM59.8689 75.6967H120.099C121.328 75.6967 122.148 74.8772 121.943 73.8529C121.943 72.8286 121.124 72.0091 120.099 72.0091H59.8689C58.8446 72.0091 58.0251 72.8286 58.0251 73.8529C58.0251 74.8772 58.8446 75.6967 59.8689 75.6967ZM120.099 87.3842H59.8689C58.8446 87.3842 58.0251 86.5647 58.0251 85.5404C58.0251 84.5161 58.8446 83.6966 59.8689 83.6966H120.099C121.124 83.6966 121.943 84.5161 121.943 85.5404C122.148 86.5647 121.328 87.3842 120.099 87.3842ZM59.8689 99.0717H120.099C121.328 99.0717 122.148 98.2522 121.943 97.2279C121.943 96.2035 121.124 95.3841 120.099 95.3841H59.8689C58.8446 95.3841 58.0251 96.2035 58.0251 97.2279C58.0251 98.2522 58.8446 99.0717 59.8689 99.0717ZM59.8689 110.759H120.099C121.328 110.759 122.148 109.94 121.943 108.915C121.943 107.891 121.124 107.072 120.099 107.072H59.8689C58.8446 107.072 58.0251 107.891 58.0251 108.915C58.0251 109.94 58.8446 110.759 59.8689 110.759ZM59.8689 64.0092H120.099C121.328 64.0092 122.148 63.1897 121.943 62.1654C121.943 61.1411 121.124 60.3216 120.099 60.3216H59.8689C58.8446 60.3216 58.0251 61.1411 58.0251 62.1654C58.0251 63.1897 58.8446 64.0092 59.8689 64.0092Z" fill="#EBECF0"/>
<path d="M134.829 38.577H46.2603C44.7541 38.577 43.549 37.7575 43.549 36.7332C43.549 35.7089 44.7541 34.8894 46.2603 34.8894H134.829C136.336 34.8894 137.541 35.7089 137.541 36.7332C137.842 37.7575 136.637 38.577 134.829 38.577Z" fill="#97A0AF"/>
<path d="M128.385 25.5833C127.32 25.5833 126.407 26.4961 126.407 27.5611C126.407 28.6261 127.32 29.539 128.385 29.539C129.45 29.539 130.363 28.6261 130.363 27.5611C130.515 26.4961 129.602 25.5833 128.385 25.5833Z" fill="#97A0AF"/>
<path d="M120.457 25.5833C119.392 25.5833 118.479 26.4961 118.479 27.5611C118.479 28.6261 119.392 29.539 120.457 29.539C121.522 29.539 122.435 28.6261 122.435 27.5611C122.587 26.4961 121.674 25.5833 120.457 25.5833Z" fill="#97A0AF"/>
<path d="M112.529 25.5833C111.464 25.5833 110.551 26.4961 110.551 27.5611C110.551 28.6261 111.464 29.539 112.529 29.539C113.594 29.539 114.507 28.6261 114.507 27.5611C114.659 26.4961 113.746 25.5833 112.529 25.5833Z" fill="#97A0AF"/>
<path d="M158.373 21.078C158.373 32.4605 149.018 41.6602 137.635 41.6602C126.252 41.6602 117.053 32.3046 117.053 20.922C117.053 9.53946 126.408 0.339844 137.791 0.339844C149.173 0.339844 158.373 9.69538 158.373 21.078Z" fill="white"/>
<circle cx="137.713" cy="20.9996" r="16.233" fill="#CC3746"/>
<path d="M131.646 27.0749C131.887 27.3166 132.215 27.4523 132.557 27.4523C132.899 27.4523 133.227 27.3166 133.468 27.0749L137.713 22.8303L141.958 27.0749C142.201 27.3097 142.526 27.4396 142.864 27.4367C143.202 27.4338 143.525 27.2982 143.764 27.0592C144.003 26.8202 144.139 26.4969 144.142 26.159C144.145 25.821 144.015 25.4954 143.78 25.2523L139.536 21.0077L143.78 16.7631C143.903 16.6442 144.001 16.5019 144.069 16.3447C144.137 16.1874 144.172 16.0183 144.174 15.8471C144.175 15.676 144.142 15.5062 144.078 15.3478C144.013 15.1894 143.917 15.0455 143.796 14.9245C143.675 14.8035 143.531 14.7077 143.373 14.6429C143.214 14.5781 143.045 14.5455 142.873 14.547C142.702 14.5485 142.533 14.584 142.376 14.6516C142.219 14.7191 142.076 14.8173 141.958 14.9405L137.713 19.1851L133.468 14.9405C133.349 14.8173 133.207 14.7191 133.05 14.6516C132.893 14.584 132.723 14.5485 132.552 14.547C132.381 14.5455 132.211 14.5781 132.053 14.6429C131.895 14.7077 131.751 14.8035 131.63 14.9245C131.509 15.0455 131.413 15.1894 131.348 15.3478C131.283 15.5062 131.251 15.676 131.252 15.8471C131.254 16.0183 131.289 16.1874 131.357 16.3447C131.424 16.5019 131.523 16.6442 131.646 16.7631L135.89 21.0077L131.646 25.2523C131.404 25.494 131.268 25.8218 131.268 26.1636C131.268 26.5054 131.404 26.8332 131.646 27.0749Z" fill="white" stroke="white"/>
</svg>
